<svg xmlns="http://www.w3.org/2000/svg" xmlns:xlink="http://www.w3.org/1999/xlink" width="6.72" height="13.19" viewBox="0 0 6.72 13.19">
  <defs>
    <style>
      .cls-1 {
        fill: #fff;
        fill-rule: evenodd;
        filter: url(#filter);
      }
    </style>
    <filter id="filter" x="1462.31" y="5130.81" width="6.72" height="13.19" filterUnits="userSpaceOnUse">
      <feFlood result="flood" flood-color="#fff"/>
      <feComposite result="composite" operator="in" in2="SourceGraphic"/>
      <feBlend result="blend" in2="SourceGraphic"/>
    </filter>
  </defs>
  <path id="Facebook_copy_2" data-name="Facebook copy 2" class="cls-1" d="M1462.32,5136.82h1.2v7.17h2.68v-7.17h1.88l0.52-2.31h-2.51a1.836,1.836,0,0,1,.17-1.33,1.448,1.448,0,0,1,.98-0.32,2.573,2.573,0,0,1,1.26.5l0.54-2.04a7.542,7.542,0,0,0-2.23-.52,3.838,3.838,0,0,0-1.89.41,2.219,2.219,0,0,0-1.01,1.17,3.994,3.994,0,0,0-.31,1.82v0.31h-1.24Z" transform="translate(-1462.31 -5130.81)"/>
</svg>
