<svg xmlns="http://www.w3.org/2000/svg" width="10.97" height="34" viewBox="0 0 10.97 34">
  <defs>
    <style>
      .cls-1 {
        fill: #071c22;
        fill-rule: evenodd;
      }
    </style>
  </defs>
  <path id="Shape_39_copy_4" data-name="Shape 39 copy 4" class="cls-1" d="M1546.27,3728a0.222,0.222,0,0,1-.17-0.14,0.831,0.831,0,0,1,0-.69l8.2-16.17-8.2-16.17a0.831,0.831,0,0,1,0-.69c0.1-.19.25-0.19,0.35,0L1555,3711l-8.55,16.86A0.221,0.221,0,0,1,1546.27,3728Zm-1.99,0a0.209,0.209,0,0,1-.17-0.14,0.831,0.831,0,0,1,0-.69l8.2-16.17-8.2-16.17a0.831,0.831,0,0,1,0-.69c0.09-.19.25-0.19,0.34,0L1553,3711l-8.55,16.86A0.209,0.209,0,0,1,1544.28,3728Z" transform="translate(-1544.03 -3694)"/>
</svg>
