<svg xmlns="http://www.w3.org/2000/svg" width="9.15" height="14.72" viewBox="0 0 9.15 14.72">
  <defs>
    <style>
      .cls-1 {
        fill: #fff;
        fill-rule: evenodd;
      }
    </style>
  </defs>
  <path id="Odnoklassniki_copy" data-name="Odnoklassniki copy" class="cls-1" d="M1434.83,5137.38a0.965,0.965,0,1,1-.99.97A0.982,0.982,0,0,1,1434.83,5137.38Zm-7.19,0a0.965,0.965,0,1,1-.99.97A0.982,0.982,0,0,1,1427.64,5137.38Zm3.19,2.63,1.4,1.36-3.22,3.14-1.39-1.36Zm-2.51,2.85a0.96,0.96,0,1,1-.99.96A0.971,0.971,0,0,1,1428.32,5142.86Zm3.28-2.85-1.39,1.36,3.21,3.14,1.4-1.36Zm2.52,2.85a0.96,0.96,0,1,0,.98.96A0.973,0.973,0,0,0,1434.12,5142.86Zm-6.1-4.88s-0.14-.63.14-0.45a6.336,6.336,0,0,0,3.07,1.06,6.444,6.444,0,0,0,3.09-1.07c0.32-.19.28,0.4,0.28,0.4s0.39-.44.56-0.09a1.282,1.282,0,0,1,.01,1.02s0.41,0.17.18,0.32a6.963,6.963,0,0,1-8.2.01c-0.25-.15.33-0.33,0.33-0.33Zm3.22-7.92a3.7,3.7,0,1,1-3.8,3.7A3.75,3.75,0,0,1,1431.24,5130.06Zm0,1.77a1.931,1.931,0,1,1-1.98,1.93A1.953,1.953,0,0,1,1431.24,5131.83Z" transform="translate(-1426.66 -5130.06)"/>
</svg>
