<svg xmlns="http://www.w3.org/2000/svg" width="16.031" height="16" viewBox="0 0 16.031 16">
  <defs>
    <style>
      .cls-1 {
        fill: #e1e1e1;
        fill-rule: evenodd;
      }
    </style>
  </defs>
  <path id="Phone_copy" data-name="Phone copy" class="cls-1" d="M880.047,5084.77a0.364,0.364,0,0,1,.166-0.19l3.963-1.57a0.315,0.315,0,0,1,.426.17l2.185,4.37a0.319,0.319,0,0,1-.055.39l-2.13,2.13a13.424,13.424,0,0,0,4.334,4.35l2.129-2.15a0.325,0.325,0,0,1,.389-0.06l4.37,2.19a0.322,0.322,0,0,1,.167.43l-1.574,3.96a0.377,0.377,0,0,1-.185.18,0.224,0.224,0,0,1-.13.02,0.266,0.266,0,0,1-.129-0.02,16.1,16.1,0,0,1-13.945-13.94,0.435,0.435,0,0,1-.018-0.13,0.287,0.287,0,0,1,.037-0.13h0Z" transform="translate(-880 -5083)"/>
</svg>
