<svg xmlns="http://www.w3.org/2000/svg" width="11.031" height="34" viewBox="0 0 11.031 34">
  <defs>
    <style>
      .cls-1 {
        fill: #071c22;
        fill-rule: evenodd;
      }
    </style>
  </defs>
  <path id="Shape_39_copy_3" data-name="Shape 39 copy 3" class="cls-1" d="M371.75,3729a0.222,0.222,0,0,0,.175-0.14,0.863,0.863,0,0,0,0-.69L363.7,3712l8.223-16.17a0.863,0.863,0,0,0,0-.69c-0.1-.19-0.253-0.19-0.35,0L363,3712l8.573,16.86A0.22,0.22,0,0,0,371.75,3729Zm2,0a0.222,0.222,0,0,0,.175-0.14,0.863,0.863,0,0,0,0-.69L365.7,3712l8.223-16.17a0.863,0.863,0,0,0,0-.69c-0.1-.19-0.253-0.19-0.35,0L365,3712l8.573,16.86A0.221,0.221,0,0,0,373.75,3729Z" transform="translate(-363 -3695)"/>
</svg>
